<svg id="SvgjsSvg1015" width="288" height="288" xmlns="http://www.w3.org/2000/svg" version="1.1" xmlns:xlink="http://www.w3.org/1999/xlink" xmlns:svgjs="http://svgjs.com/svgjs"><defs id="SvgjsDefs1016"></defs><g id="SvgjsG1017"><svg xmlns="http://www.w3.org/2000/svg" width="288" height="288" version="1.0" viewBox="0 0 1010 800"><g transform="matrix(.1 0 0 -.1 0 800)" fill="#ffffff" class="color000 svgShape"><path d="M4175 7767c-152-86-131-313 34-372 74-26 139-14 198 38 112 98 92 271-39 338-53 27-141 25-193-4zM5640 7779c-46-18-100-81-115-133-52-173 132-321 293-237 48 25 96 91 106 147 16 81-49 194-127 223-35 13-123 13-157 0zM5197 7237c-71-22-127-97-127-170 0-18 10-53 23-77 36-73 113-111 194-95 49 9 117 77 132 130 24 92-33 189-127 215-44 12-46 12-95-3zM4055 7061c-48-22-69-44-90-94-20-49-19-92 5-142 80-165 330-111 330 72 0 60-15 95-57 135-53 51-119 61-188 29zM2929 7047c-117-62-144-214-56-314 84-95 220-95 304 0 117 133 25 337-152 337-35 0-66-8-96-23zM6885 7051c-43-19-90-68-107-110-6-14-10-49-10-77 1-184 221-271 349-139 56 59 73 129 49 202-39 117-170 175-281 124zM6235 6816c-60-26-126-131-111-177 2-8 7-26 10-41 8-34 50-84 89-105 39-20 115-20 154 0 72 38 113 116 99 191-20 106-144 174-241 132zM4944 6640c-30-12-71-64-79-100-9-43 11-94 51-130 28-24 44-30 82-30 109 0 172 99 126 196-29 61-113 91-180 64zM4152 6433c-38-8-89-67-97-112-18-110 110-200 203-142 66 42 88 114 54 180-30 60-92 89-160 74zM5725 6399c-69-61-69-148 1-209 64-56 171-34 207 43 9 19 17 47 17 62 0 41-30 95-64 116-19 11-50 19-78 19-39 0-54-6-83-31zM3155 6351c-94-58-119-164-59-254 86-130 291-82 319 75 12 66-32 150-96 183-40 21-127 19-164-4zM4903 6070c-40-24-53-48-53-100 0-53 29-95 75-110 49-16 89-4 125 36 88 101-32 245-147 174zM5453 5950c-68-27-82-141-24-192 90-80 233 16 188 125-28 66-97 94-164 67zM6935 5926c-37-17-80-62-94-99-32-83 8-180 91-223 72-37 184-2 225 71 83 147-70 319-222 251zM4385 5921c-45-20-70-60-70-112 0-42 5-53 33-81 28-28 39-33 82-33 43 0 54 5 82 33 28 28 33 39 33 82 0 42-5 54-31 81-33 33-92 46-129 30zM3556 5840c-113-34-129-196-25-252 94-50 202 13 202 118 0 90-92 160-177 134zM6340 5822c-23-11-43-32-58-64-21-41-22-51-12-89 30-111 156-142 236-58 25 26 29 38 29 89 0 48-4 63-25 85-52 56-108 68-170 37zM2225 5806c-86-37-131-115-123-211 14-166 209-242 335-132 113 99 88 267-49 338-43 22-119 24-163 5zM7615 5806c-86-37-131-115-123-211 15-176 232-247 352-115 74 82 73 195-2 273-59 62-155 85-227 53zM5853 5560c-39-24-53-48-53-95 0-51 23-89 66-110 50-23 95-13 133 31 50 56 40 137-21 174-42 25-84 25-125 0zM3984 5501c-56-34-70-125-27-174 85-95 243-12 203 107-25 77-108 108-176 67zM2755 5306c-37-16-92-77-101-112-4-14-4-47-2-74 9-89 78-150 173-150 158 0 234 194 119 302-52 48-126 61-189 34zM4785 5238c-10-26-206-961-203-968 3-7 213 42 223 52 3 3 13 45 23 93 9 48 21 89 27 90 57 15 116 45 159 79l51 42 18-37c26-54 88-83 167-77 48 3 70 11 115 42 61 43 235 203 235 217 0 24-53 4-111-42-98-79-135-93-180-69-28 15-25 44 31 312 28 131 50 248 50 259 0 19-6 20-107 17l-107-3-52-246c-28-136-54-258-58-273-8-32-84-79-123-74-57 6-57 27 3 313 29 143 54 266 54 273 0 9-28 12-105 12-75 0-107-4-110-12zM6043 5043c-12-2-36-20-53-39-77-89-3-212 114-190 102 19 118 174 22 220-34 16-42 17-83 9zM3336 5030c-98-30-127-154-53-227 80-80 211-39 231 73 11 54-24 117-78 143-46 23-56 24-100 11zM6560 5012c-69-34-99-117-65-182 47-92 170-104 232-23 53 69 26 176-53 209-44 18-72 18-114-4zM3870 4968c-13-7-35-29-48-48-32-47-25-101 17-144 27-26 39-31 81-31 43 0 54 5 82 33 28 28 33 39 33 82 0 42-5 54-31 81-36 35-95 47-134 27zM7092 4799c-59-29-85-70-90-140-8-103 52-177 148-187 65-6 93 2 136 40 64 57 81 135 45 206-49 95-144 128-239 81zM5882 4484c-28-19-52-65-52-99 0-34 24-80 52-99 28-20 90-21 127-1 38 19 65 77 57 120-10 50-66 95-119 95-23 0-53-7-65-16zM4019 4425c-36-20-63-78-55-120 10-50 66-95 119-95 49 0 81 19 102 60 28 53 11 120-37 154-28 20-94 20-129 1zM2236 4365c-47-16-103-69-122-112-29-67-11-168 39-221 91-98 270-76 330 40 44 87 30 179-37 243-63 61-133 78-210 50zM7626 4365c-47-16-103-69-122-112-31-73-10-177 48-229 46-43 87-56 154-52 50 3 72 10 105 33 105 75 117 222 25 310-63 61-133 78-210 50zM3556 4220c-69-21-115-103-96-169 33-117 195-137 252-30 58 107-41 234-156 199zM6341 4203c-124-65-93-242 45-259 73-9 141 46 150 122 13 104-103 186-195 137zM2914 4181c-97-44-131-163-71-252 36-54 82-79 144-79 30 0 67 7 82 15 64 33 108 117 96 183-21 118-142 182-251 133zM5524 4086c-128-56-78-241 60-223 114 16 136 172 31 221-40 19-51 19-91 2zM4428 4044c-58-31-74-107-35-165 66-98 212-52 212 68 0 39-5 49-37 79-42 38-92 45-140 18zM5005 3932c-34-8-63-32-80-69-48-100 64-200 165-148 77 40 77 166 0 205-24 12-63 18-85 12zM6697 3756c-172-62-145-314 37-341 102-16 196 68 196 174 0 76-35 130-105 162-47 22-76 23-128 5zM4113 3610c-41-25-63-68-63-124 0-36 6-52 31-81 82-92 225-49 237 73 8 87-49 152-133 152-22 0-54-9-72-20zM5755 3616c-52-23-85-71-85-124 0-59 26-103 73-125 97-46 197 18 197 126 0 53-34 101-87 123-40 17-59 17-98 0zM4923 3390c-42-25-63-68-63-126 0-41 5-51 39-85 35-36 43-39 93-39 85 0 138 53 138 137 0 104-117 168-207 113zM3606 3286c-53-32-86-89-86-149 0-98 78-177 175-177 120 0 207 125 164 237-13 34-55 80-91 99-42 22-117 18-162-10zM2961 3115c-110-34-171-165-126-273 70-166 310-166 380 0 45 110-16 240-129 273-59 18-68 18-125 0zM6916 3120c-150-48-198-232-88-342 118-118 316-54 347 113 14 75-32 168-102 207-46 25-115 35-157 22zM5795 3046c-65-28-114-120-101-189 8-42 41-93 78-120 43-32 132-34 183-5 158 92 96 329-87 328-23-1-57-7-73-14zM4695 2888c-50-18-82-46-104-91-66-137 53-286 197-249 57 15 116 73 131 128 24 91-34 188-127 214-44 12-58 12-97-2zM4175 2377c-162-92-125-337 59-378 230-51 344 274 134 382-53 27-141 25-193-4zM5640 2389c-75-30-138-140-124-219 33-191 283-239 380-74 32 55 37 140 11 189-20 40-75 91-110 104-35 13-123 13-157 0zM9696 1135c-82-29-126-96-126-192 1-116 64-193 166-201 100-8 173 37 203 127 37 112-23 242-124 270-51 14-71 13-119-4zm143-52c43-33 64-79 64-142 0-109-55-165-155-158-68 4-99 27-124 94-31 80-1 177 66 214 43 24 111 20 149-8z" fill="#ffffff" class="color000 svgShape"></path><path d="M9680 947c0-63 3-116 6-119 3-3 14-3 26 0 18 4 20 11 15 48-6 59 11 57 57-6 23-31 43-50 56-50 26 0 26 2-14 57l-34 48 24 18c17 13 24 28 24 52 0 47-29 65-102 65l-58 0 0-113zm118 49c5-22-13-36-45-36-19 0-23 5-23 31 0 28 2 30 32 27 23-2 34-9 36-22zM2534 970c-68-14-111-37-162-85-164-152-150-497 25-618 68-47 112-60 203-61 73-1 93 3 141 26 31 16 64 37 75 49 19 21 19 21-20 55l-40 34-25-24c-75-72-210-58-275 27-43 56-58 113-58 217 0 143 39 228 124 271 57 29 141 23 197-14l41-28 41 33 41 33-33 27c-59 50-188 77-275 58zM4702 970c-176-37-276-199-259-419 12-155 73-258 184-313 60-29 77-33 148-32 105 0 167 27 234 100 68 74 95 156 95 284 0 128-27 210-95 284-29 32-68 62-96 74-57 24-152 34-211 22zm148-105c144-75 160-428 24-532-36-27-104-40-148-29-79 20-136 122-144 256-8 144 32 252 112 301 38 23 115 25 156 4zM147 953c-9-8-9-576 0-666l6-68 56 3 56 3-3 295c-2 254-1 291 11 265 7-16 55-150 107-297l94-268 57 0 57 0 73 208c40 114 87 248 105 297l33 90 0-297 1-298 65 0 65 0-2 368-3 367-95 0-95 0-63-180c-130-375-135-387-142-374-4 8-52 137-105 287l-98 272-87 0c-48 0-90-3-93-7zM1537 953c-9-8-9-404 0-591l6-142 65 0 65 0-6 97c-4 54-7 221-7 371l0 272-58 0c-32 0-62-3-65-7zM3390 591l0-372 61 3 61 3-1 163-2 162 53 0 53 0 83-165 82-165 71 0 71 0-67 128c-37 70-79 146-92 169l-24 42 38 16c80 34 123 97 123 183 0 77-34 130-105 167-57 29-62 30-232 33l-173 4 0-371zm315 265c58-25 82-104 50-165-21-42-71-61-159-61l-76 0 0 120 0 120 75 0c43 0 90-6 110-14zM5706 951c-4-5-3-172 0-370l7-361 23 0 24 0 2 325 3 325 190-325c187-320 190-324 223-325l32 0 0 370 0 370-25 0-25 0-2-327-3-328-191 325c-180 306-193 325-222 328-16 2-33-1-36-7zM6979 938c-5-13-63-178-128-368-118-346-122-364-76-347 7 3 27 49 45 101l32 96 129 2c71 1 144 2 161 2 32 1 33 0 68-99 33-92 38-100 65-103 23-3 27-1 20 15-4 10-58 169-120 353-62 184-116 343-120 353-11 26-63 23-76-5zm114-256c37-107 67-198 67-203 0-5-65-9-145-9l-144 0 71 210c40 116 75 207 78 203 4-5 37-95 73-201zM7797 954c-11-11-8-461 3-533 25-149 99-214 250-215 83-1 148 24 194 74 59 66 66 108 66 412l0 268-24 0-24 0-4-282c-4-309-7-327-64-380-39-36-74-48-143-48-79 0-138 31-171 90-25 44-25 49-30 330-5 277-6 285-25 288-12 2-24 0-28-4zM8812 938c3-22 6-23 96-19l92 3 0-351 0-351 25 0 25 0 0 344 0 343 61 7c34 3 77 6 95 6 27 0 34 4 34 20 0 19-7 20-216 20l-215 0 3-22z" fill="#ffffff" class="color000 svgShape"></path></g></svg></g></svg>